PathFileType	4	(X/Y/Z)	C:\Users\86182\Documents\cortex\Trimmed_M3_H7.trc
DataRate	CameraRate	NumFrames	NumMarkers	Units	OrigDataRate	OrigDataStartFrame	OrigNumFrames
100.00	100.00	       84	2	mm	100.00	721	       901
Frame#	Time	gripper			box			
		X1	Y1	Z1	X2	Y2	Z2	

721	7.200	267.72165	173.10309	292.00870	268.04773	169.60558	155.27960	
722	7.210	267.72418	173.10355	292.00739	268.04776	169.60565	155.27954	
723	7.220	267.72397	173.10382	292.00583	268.04776	169.60570	155.27945	
724	7.230	267.72116	173.10400	292.00412	268.04773	169.60570	155.27940	
725	7.240	267.71677	173.10422	292.00241	268.04764	169.60567	155.27943	
726	7.250	267.71216	173.10440	292.00092	268.04745	169.60556	155.27960	
727	7.260	267.70847	173.10439	292.00000	268.04718	169.60539	155.27991	
728	7.270	267.70636	173.10411	292.00000	268.04672	169.60515	155.28032	
729	7.280	267.70569	173.10378	292.00104	268.04611	169.60486	155.28078	
730	7.290	267.70605	173.10365	292.00262	268.04532	169.60457	155.28120	
731	7.300	267.70709	173.10390	292.00385	268.04456	169.60435	155.28142	
732	7.310	267.70837	173.10442	292.00397	268.04401	169.60432	155.28128	
733	7.320	267.70923	173.10497	292.00256	268.04382	169.60451	155.28070	
734	7.330	267.70932	173.10526	291.99997	268.04398	169.60486	155.27986	
735	7.340	267.70877	173.10522	291.99689	268.04431	169.60522	155.27902	
736	7.350	267.70810	173.10490	291.99432	268.04480	169.60555	155.27840	
737	7.360	267.70779	173.10434	291.99310	268.04538	169.60574	155.27811	
738	7.370	267.70828	173.10359	291.99356	268.04599	169.60585	155.27808	
739	7.380	267.70972	173.10274	291.99573	268.04648	169.60588	155.27818	
740	7.390	267.71176	173.10199	291.99908	268.04688	169.60587	155.27835	
741	7.400	267.71347	173.10155	292.00299	268.04715	169.60582	155.27856	
742	7.410	267.71390	173.10153	292.00671	268.04736	169.60577	155.27882	
743	7.420	267.71298	173.10190	292.00983	268.04749	169.60574	155.27907	
744	7.430	267.71136	173.10243	292.01199	268.04755	169.60573	155.27930	
745	7.440	267.71030	173.10295	292.01288	268.04749	169.60576	155.27946	
746	7.450	267.71060	173.10323	292.01233	268.04733	169.60583	155.27960	
747	7.460	267.71207	173.10301	292.01059	268.04712	169.60594	155.27971	
748	7.470	267.71353	173.10233	292.00818	268.04688	169.60608	155.27977	
749	7.480	267.71368	173.10144	292.00586	268.04666	169.60622	155.27980	
750	7.490	267.71182	173.10089	292.00446	268.04663	169.60628	155.27977	
751	7.500	267.70819	173.10104	292.00439	268.04688	169.60622	155.27956	
752	7.510	267.70422	173.10184	292.00574	268.04761	169.60591	155.27908	
753	7.520	267.70148	173.10294	292.00775	268.04895	169.60524	155.27821	
754	7.530	267.70074	173.10388	292.00958	268.05115	169.60406	155.27690	
755	7.540	267.70181	173.10432	292.01053	268.05429	169.60231	155.27513	
756	7.550	267.70398	173.10397	292.01047	268.05826	169.59993	155.27306	
757	7.560	267.70651	173.10278	292.00967	268.06259	169.59715	155.27109	
758	7.570	267.70898	173.10106	292.00861	268.06644	169.59441	155.26990	
759	7.580	267.71121	173.09924	292.00763	268.06857	169.59230	155.27022	
760	7.590	267.71310	173.09775	292.00699	268.06854	169.59126	155.27219	
761	7.600	267.71466	173.09680	292.00693	268.06668	169.59132	155.27516	
762	7.610	267.71573	173.09644	292.00757	268.06375	169.59232	155.27812	
763	7.620	267.71613	173.09651	292.00879	268.06036	169.59410	155.28036	
764	7.630	267.71606	173.09692	292.01019	268.05698	169.59644	155.28163	
765	7.640	267.71606	173.09752	292.01135	268.05396	169.59885	155.28210	
766	7.650	267.71677	173.09805	292.01187	268.05164	169.60089	155.28207	
767	7.660	267.71823	173.09833	292.01151	268.05011	169.60237	155.28185	
768	7.670	267.71991	173.09837	292.01050	268.04922	169.60332	155.28152	
769	7.680	267.72101	173.09837	292.00916	268.04874	169.60394	155.28116	
770	7.690	267.72086	173.09843	292.00800	268.04846	169.60440	155.28078	
771	7.700	267.71918	173.09859	292.00735	268.04831	169.60471	155.28046	
772	7.710	267.71637	173.09889	292.00751	268.04834	169.60477	155.28027	
773	7.720	267.71338	173.09938	292.00836	268.04861	169.60451	155.28027	
774	7.730	267.71124	173.10004	292.00949	268.04916	169.60393	155.28050	
775	7.740	267.71048	173.10071	292.01031	268.04990	169.60307	155.28090	
776	7.750	267.71121	173.10126	292.01044	268.05075	169.60207	155.28140	
777	7.760	267.71323	173.10172	292.00977	268.05145	169.60121	155.28185	
778	7.770	267.71609	173.10213	292.00848	268.05176	169.60085	155.28204	
779	7.780	267.71939	173.10249	292.00681	268.05148	169.60117	155.28189	
780	7.790	267.72272	173.10277	292.00494	268.05084	169.60197	155.28148	
781	7.800	267.72562	173.10297	292.00317	268.05008	169.60289	155.28101	
782	7.810	267.72733	173.10320	292.00183	268.04947	169.60362	155.28062	
783	7.820	267.72699	173.10356	292.00116	268.04910	169.60402	155.28038	
784	7.830	267.72427	173.10405	292.00119	268.04901	169.60408	155.28030	
785	7.840	267.71982	173.10454	292.00195	268.04913	169.60384	155.28036	
786	7.850	267.71472	173.10489	292.00330	268.04938	169.60342	155.28046	
787	7.860	267.70978	173.10506	292.00507	268.04959	169.60301	155.28055	
788	7.870	267.70538	173.10509	292.00696	268.04974	169.60266	155.28058	
789	7.880	267.70206	173.10503	292.00873	268.04984	169.60239	155.28061	
790	7.890	267.70013	173.10487	292.01022	268.05002	169.60208	155.28069	
791	7.900	267.69968	173.10471	292.01123	268.05032	169.60165	155.28085	
792	7.910	267.70044	173.10460	292.01166	268.05066	169.60117	155.28105	
793	7.920	267.70224	173.10464	292.01163	268.05090	169.60081	155.28119	
794	7.930	267.70462	173.10487	292.01138	268.05096	169.60080	155.28123	
795	7.940	267.70685	173.10516	292.01114	268.05084	169.60107	155.28120	
796	7.950	267.70844	173.10529	292.01102	268.05057	169.60159	155.28110	
797	7.960	267.70944	173.10506	292.01114	268.05023	169.60223	155.28094	
798	7.970	267.71011	173.10452	292.01166	268.04990	169.60281	155.28079	
799	7.980	267.71039	173.10390	292.01270	268.04974	169.60313	155.28075	
800	7.990	267.70981	173.10344	292.01410	268.04987	169.60306	155.28087	
801	8.000	267.70837	173.10320	292.01563	268.05029	169.60262	155.28114	
802	8.010	267.70676	173.10310	292.01672	268.05081	169.60199	155.28149	
803	8.020	267.70593	173.10297	292.01700	268.05127	169.60143	155.28180	
804	8.030	267.70630	173.10260	292.01642	268.05154	169.60110	155.28195	
